<svg width="14" height="17" viewBox="0 0 14 17" fill="none" xmlns="http://www.w3.org/2000/svg">
<path opacity="0.15" d="M9.31128 4.24996C9.91629 4.24996 10.4067 3.6157 10.4067 2.83329C10.4067 2.05089 9.91629 1.41663 9.31128 1.41663C8.70628 1.41663 8.21582 2.05089 8.21582 2.83329C8.21582 3.6157 8.70628 4.24996 9.31128 4.24996Z" fill="#1D2E5B"/>
<path opacity="0.15" d="M8.64155 7.76969C8.76729 8.01199 8.94764 8.19839 9.15812 8.30356C9.3686 8.40874 9.59901 8.42761 9.81807 8.3576L11.6343 7.77039L11.3698 6.39623L9.55352 6.98344L8.7982 5.51931C8.63682 5.20663 8.38637 4.98917 8.10148 4.91439L5.99491 4.36898C5.75924 4.30781 5.51456 4.34869 5.29865 4.48529C5.08274 4.62189 4.90761 4.84662 4.80031 5.12477L3.89217 7.4736L4.87206 8.10756L5.7802 5.75802L6.85759 6.0371L4.07183 12.0416H1.64319V13.4583H4.07183C4.45414 13.4583 4.814 13.1948 5.01119 12.7705L6.06173 10.5067L8.89295 11.2391L9.88763 15.0988L10.9261 14.6504L9.932 10.7914C9.87065 10.5545 9.7621 10.3427 9.61728 10.1773C9.47246 10.0119 9.2965 9.89879 9.10712 9.84935L7.44256 9.41939L8.41314 7.32698L8.64155 7.76969Z" fill="#1D2E5B"/>
</svg>
