<svg width="14" height="17" viewBox="0 0 14 17" fill="none" xmlns="http://www.w3.org/2000/svg">
<g clip-path="url(#clip0)">
<path opacity="0.15" d="M4.24865 10.8571C4.24865 10.5417 4.1429 10.2723 3.9314 10.0491C3.7199 9.82589 3.46469 9.71429 3.16576 9.71429C2.86684 9.71429 2.61163 9.82589 2.40013 10.0491C2.18863 10.2723 2.08288 10.5417 2.08288 10.8571C2.08288 11.1726 2.18863 11.442 2.40013 11.6652C2.61163 11.8884 2.86684 12 3.16576 12C3.46469 12 3.7199 11.8884 3.9314 11.6652C4.1429 11.442 4.24865 11.1726 4.24865 10.8571ZM12.9117 10.8571C12.9117 10.5417 12.806 10.2723 12.5945 10.0491C12.383 9.82589 12.1277 9.71429 11.8288 9.71429C11.5299 9.71429 11.2747 9.82589 11.0632 10.0491C10.8517 10.2723 10.7459 10.5417 10.7459 10.8571C10.7459 11.1726 10.8517 11.442 11.0632 11.6652C11.2747 11.8884 11.5299 12 11.8288 12C12.1277 12 12.383 11.8884 12.5945 11.6652C12.806 11.442 12.9117 11.1726 12.9117 10.8571ZM12.5225 7.32143L11.9134 3.89286C11.8852 3.75595 11.8218 3.64435 11.7231 3.55804C11.6244 3.47173 11.5102 3.42857 11.3804 3.42857H3.61415C3.48443 3.42857 3.37022 3.47173 3.27152 3.55804C3.17281 3.64435 3.10936 3.75595 3.08116 3.89286L2.47204 7.32143C2.44384 7.5 2.48332 7.65774 2.59048 7.79464C2.69764 7.93155 2.83582 8 3.00502 8H11.9896C12.1588 8 12.2969 7.93155 12.4041 7.79464C12.5113 7.65774 12.5507 7.5 12.5225 7.32143ZM10.6106 1.85714C10.6106 1.7381 10.5711 1.6369 10.4921 1.55357C10.4132 1.47024 10.3173 1.42857 10.2045 1.42857H4.79009C4.67729 1.42857 4.58141 1.47024 4.50245 1.55357C4.42349 1.6369 4.38401 1.7381 4.38401 1.85714C4.38401 1.97619 4.42349 2.07738 4.50245 2.16071C4.58141 2.24405 4.67729 2.28571 4.79009 2.28571H10.2045C10.3173 2.28571 10.4132 2.24405 10.4921 2.16071C10.5711 2.07738 10.6106 1.97619 10.6106 1.85714ZM13.9946 8.33036V13.7143H12.9117V14.8571C12.9117 15.1726 12.806 15.442 12.5945 15.6652C12.383 15.8884 12.1277 16 11.8288 16C11.5299 16 11.2747 15.8884 11.0632 15.6652C10.8517 15.442 10.7459 15.1726 10.7459 14.8571V13.7143H4.24865V14.8571C4.24865 15.1726 4.1429 15.442 3.9314 15.6652C3.7199 15.8884 3.46469 16 3.16576 16C2.86684 16 2.61163 15.8884 2.40013 15.6652C2.18863 15.442 2.08288 15.1726 2.08288 14.8571V13.7143H1V8.33036C1 7.66369 1.0705 7 1.2115 6.33929L2.08288 2.28571C2.13364 1.82143 2.40859 1.41369 2.90773 1.0625C3.40688 0.71131 4.05548 0.446429 4.85354 0.267857C5.6516 0.0892857 6.53285 0 7.49729 0C8.46174 0 9.34299 0.0892857 10.1411 0.267857C10.9391 0.446429 11.5877 0.71131 12.0869 1.0625C12.586 1.41369 12.8609 1.82143 12.9117 2.28571L13.8 6.33929C13.9297 6.94643 13.9946 7.61012 13.9946 8.33036Z" fill="#1D2E5B"/>
</g>
<defs>
<clipPath id="clip0">
<rect width="13" height="16" fill="white" transform="translate(0.662231 0.352295)"/>
</clipPath>
</defs>
</svg>
