<svg width="15" height="17" fill="none" xmlns="http://www.w3.org/2000/svg"><path opacity=".15" d="M10.958 13.966a2.597 2.597 0 01-2.548-3.108 2.6 2.6 0 013.542-1.894 2.6 2.6 0 01-.994 5.002zm0-4.296a1.694 1.694 0 00-1.662 2.026 1.695 1.695 0 101.662-2.026zm-7.456 4.296a2.597 2.597 0 01-2.548-3.108 2.6 2.6 0 013.542-1.894 2.599 2.599 0 01.843 4.24 2.6 2.6 0 01-1.837.762zm0-4.296a1.694 1.694 0 00-1.662 2.026A1.695 1.695 0 103.502 9.67zm5.536-5.42a.785.785 0 00.347-.08.907.907 0 00.294-.231c.084-.1.15-.217.195-.347a1.22 1.22 0 00.067-.408 1.21 1.21 0 00-.065-.406 1.077 1.077 0 00-.195-.345.896.896 0 00-.292-.23.788.788 0 00-.692.001.908.908 0 00-.294.23 1.09 1.09 0 00-.196.344 1.226 1.226 0 00-.003.813 1.1 1.1 0 00.195.345.91.91 0 00.293.232c.11.054.227.082.346.082z" fill="#1D2E5B"/><path opacity=".15" d="M10.38 6.375H9.146a.1.1 0 01-.058-.018.126.126 0 01-.042-.051L8.15 4.375a1.001 1.001 0 00-.266-.362.81.81 0 00-.376-.182.751.751 0 00-.405.037.865.865 0 00-.348.25L4.781 6.454c-.165.199-.26.465-.262.744 0 .577.356.783.522.9.805.545 1.372.943 1.683 1.165a.135.135 0 01.054.113v2.295c0 .286.187.531.43.545a.391.391 0 00.18-.032.45.45 0 00.154-.113.54.54 0 00.103-.175.612.612 0 00.037-.21V8.833a.608.608 0 00-.05-.242.517.517 0 00-.138-.19l-1.045-.883a.128.128 0 01-.032-.042.15.15 0 01-.01-.11.139.139 0 01.026-.047L7.619 5.83a.113.113 0 01.044-.035.097.097 0 01.052-.007c.018.003.035.01.05.022a.127.127 0 01.035.046l.616 1.307c.04.083.097.152.166.2.07.048.149.074.23.074h1.581a.395.395 0 00.178-.043.459.459 0 00.15-.122.554.554 0 00.096-.181.62.62 0 00.028-.211c-.012-.286-.221-.506-.465-.506z" fill="#1D2E5B"/></svg>