<svg width="14" height="16" fill="none" xmlns="http://www.w3.org/2000/svg"><g clip-path="url(#clip0)"><path d="M3.501 10.857a1.13 1.13 0 00-.317-.808 1.017 1.017 0 00-.765-.335c-.3 0-.555.112-.766.335a1.133 1.133 0 00-.317.808c0 .316.105.585.317.808.211.223.467.335.766.335.298 0 .554-.112.765-.335.212-.223.317-.492.317-.808zm8.664 0c0-.315-.106-.585-.318-.808a1.017 1.017 0 00-.765-.335c-.3 0-.555.112-.766.335a1.133 1.133 0 00-.317.808c0 .316.105.585.317.808.211.223.467.335.766.335s.554-.112.765-.335a1.13 1.13 0 00.318-.808zm-.39-3.536l-.609-3.428a.589.589 0 00-.19-.335.505.505 0 00-.343-.13H2.867a.505.505 0 00-.343.13.589.589 0 00-.19.335l-.61 3.428a.587.587 0 00.12.474.503.503 0 00.414.205h8.984c.17 0 .308-.068.415-.205a.587.587 0 00.118-.474zM9.863 1.857c0-.119-.04-.22-.118-.303a.382.382 0 00-.288-.125H4.043a.382.382 0 00-.288.125.425.425 0 00-.118.303c0 .12.04.22.118.304a.381.381 0 00.288.125h5.414a.381.381 0 00.288-.125.425.425 0 00.118-.304zm3.384 6.473v5.384h-1.082v1.143c0 .316-.106.585-.318.808a1.017 1.017 0 01-.765.335c-.3 0-.555-.112-.766-.335a1.133 1.133 0 01-.317-.808v-1.143H3.5v1.143c0 .316-.105.585-.317.808A1.017 1.017 0 012.42 16c-.3 0-.555-.112-.766-.335a1.133 1.133 0 01-.317-.808v-1.143H.253V8.33c0-.666.07-1.33.211-1.99l.872-4.054c.05-.465.325-.872.825-1.224C2.66.713 3.308.447 4.106.268A12.1 12.1 0 016.75 0c.965 0 1.846.09 2.644.268.798.178 1.447.443 1.946.794.499.352.774.76.825 1.224l.888 4.053c.13.607.194 1.271.194 1.991z" fill="#1D2E5B"/></g><defs><clipPath id="clip0"><path fill="#fff" transform="translate(.25)" d="M0 0h13v16H0z"/></clipPath></defs></svg>